<svg width="750" height="75" viewBox="0 0 750 75" fill="none" xmlns="http://www.w3.org/2000/svg">
<rect width="750" height="75" rx="10" fill="white"/>
<path opacity="0.5" d="M39.75 37.7422H34.8203V41.7734H40.5469V43H33.3203V31.625H40.4688V32.8594H34.8203V36.5156H39.75V37.7422ZM43.5547 34.5469L43.6016 35.6094C44.2474 34.7969 45.0911 34.3906 46.1328 34.3906C47.9193 34.3906 48.8203 35.3984 48.8359 37.4141V43H47.3906V37.4062C47.3854 36.7969 47.2448 36.3464 46.9688 36.0547C46.6979 35.763 46.2734 35.6172 45.6953 35.6172C45.2266 35.6172 44.8151 35.7422 44.4609 35.9922C44.1068 36.2422 43.8307 36.5703 43.6328 36.9766V43H42.1875V34.5469H43.5547ZM52.9766 32.5V34.5469H54.5547V35.6641H52.9766V40.9062C52.9766 41.2448 53.0469 41.5 53.1875 41.6719C53.3281 41.8385 53.5677 41.9219 53.9062 41.9219C54.0729 41.9219 54.3021 41.8906 54.5938 41.8281V43C54.2135 43.1042 53.8438 43.1562 53.4844 43.1562C52.8385 43.1562 52.3516 42.9609 52.0234 42.5703C51.6953 42.1797 51.5312 41.625 51.5312 40.9062V35.6641H49.9922V34.5469H51.5312V32.5H52.9766ZM59.7578 43.1562C58.612 43.1562 57.6797 42.7812 56.9609 42.0312C56.2422 41.276 55.8828 40.2682 55.8828 39.0078V38.7422C55.8828 37.9036 56.0417 37.1562 56.3594 36.5C56.6823 35.8385 57.1302 35.3229 57.7031 34.9531C58.2812 34.5781 58.9062 34.3906 59.5781 34.3906C60.6771 34.3906 61.5312 34.7526 62.1406 35.4766C62.75 36.2005 63.0547 37.237 63.0547 38.5859V39.1875H57.3281C57.349 40.0208 57.5911 40.6953 58.0547 41.2109C58.5234 41.7214 59.1172 41.9766 59.8359 41.9766C60.3464 41.9766 60.7786 41.8724 61.1328 41.6641C61.487 41.4557 61.7969 41.1797 62.0625 40.8359L62.9453 41.5234C62.237 42.612 61.1745 43.1562 59.7578 43.1562ZM59.5781 35.5781C58.9948 35.5781 58.5052 35.7917 58.1094 36.2188C57.7135 36.6406 57.4688 37.2344 57.375 38H61.6094V37.8906C61.5677 37.1562 61.3698 36.5885 61.0156 36.1875C60.6615 35.7812 60.1823 35.5781 59.5781 35.5781ZM68.8203 35.8438C68.6016 35.8073 68.3646 35.7891 68.1094 35.7891C67.1615 35.7891 66.5182 36.1927 66.1797 37V43H64.7344V34.5469H66.1406L66.1641 35.5234C66.638 34.7682 67.3099 34.3906 68.1797 34.3906C68.4609 34.3906 68.6745 34.4271 68.8203 34.5V35.8438ZM76.8906 40.8828L78.8594 34.5469H80.4062L77.0078 44.3047C76.4818 45.7109 75.6458 46.4141 74.5 46.4141L74.2266 46.3906L73.6875 46.2891V45.1172L74.0781 45.1484C74.5677 45.1484 74.9479 45.0495 75.2188 44.8516C75.4948 44.6536 75.7214 44.2917 75.8984 43.7656L76.2188 42.9062L73.2031 34.5469H74.7812L76.8906 40.8828ZM81.1953 38.6953C81.1953 37.8672 81.3568 37.1224 81.6797 36.4609C82.0078 35.7995 82.4609 35.2891 83.0391 34.9297C83.6224 34.5703 84.2865 34.3906 85.0312 34.3906C86.1823 34.3906 87.112 34.7891 87.8203 35.5859C88.5339 36.3828 88.8906 37.4427 88.8906 38.7656V38.8672C88.8906 39.6901 88.7318 40.4297 88.4141 41.0859C88.1016 41.737 87.651 42.2448 87.0625 42.6094C86.4792 42.974 85.8073 43.1562 85.0469 43.1562C83.901 43.1562 82.9714 42.7578 82.2578 41.9609C81.5495 41.1641 81.1953 40.1094 81.1953 38.7969V38.6953ZM82.6484 38.8672C82.6484 39.8047 82.8646 40.5573 83.2969 41.125C83.7344 41.6927 84.3177 41.9766 85.0469 41.9766C85.7812 41.9766 86.3646 41.6901 86.7969 41.1172C87.2292 40.5391 87.4453 39.7318 87.4453 38.6953C87.4453 37.7682 87.224 37.0182 86.7812 36.4453C86.3438 35.8672 85.7604 35.5781 85.0312 35.5781C84.3177 35.5781 83.7422 35.862 83.3047 36.4297C82.8672 36.9974 82.6484 37.8099 82.6484 38.8672ZM95.9219 42.1641C95.3594 42.8255 94.5339 43.1562 93.4453 43.1562C92.5443 43.1562 91.8568 42.8958 91.3828 42.375C90.9141 41.849 90.6771 41.0729 90.6719 40.0469V34.5469H92.1172V40.0078C92.1172 41.2891 92.638 41.9297 93.6797 41.9297C94.7839 41.9297 95.5182 41.5182 95.8828 40.6953V34.5469H97.3281V43H95.9531L95.9219 42.1641ZM103.617 35.8438C103.398 35.8073 103.161 35.7891 102.906 35.7891C101.958 35.7891 101.315 36.1927 100.977 37V43H99.5312V34.5469H100.938L100.961 35.5234C101.435 34.7682 102.107 34.3906 102.977 34.3906C103.258 34.3906 103.471 34.4271 103.617 34.5V35.8438ZM110.281 34.5469L110.32 35.4844C110.94 34.7552 111.776 34.3906 112.828 34.3906C114.01 34.3906 114.815 34.8438 115.242 35.75C115.523 35.3438 115.888 35.0156 116.336 34.7656C116.789 34.5156 117.323 34.3906 117.938 34.3906C119.792 34.3906 120.734 35.3724 120.766 37.3359V43H119.32V37.4219C119.32 36.8177 119.182 36.3672 118.906 36.0703C118.63 35.7682 118.167 35.6172 117.516 35.6172C116.979 35.6172 116.534 35.7786 116.18 36.1016C115.826 36.4193 115.62 36.849 115.562 37.3906V43H114.109V37.4609C114.109 36.2318 113.508 35.6172 112.305 35.6172C111.357 35.6172 110.708 36.0208 110.359 36.8281V43H108.914V34.5469H110.281ZM126.461 43.1562C125.315 43.1562 124.383 42.7812 123.664 42.0312C122.945 41.276 122.586 40.2682 122.586 39.0078V38.7422C122.586 37.9036 122.745 37.1562 123.062 36.5C123.385 35.8385 123.833 35.3229 124.406 34.9531C124.984 34.5781 125.609 34.3906 126.281 34.3906C127.38 34.3906 128.234 34.7526 128.844 35.4766C129.453 36.2005 129.758 37.237 129.758 38.5859V39.1875H124.031C124.052 40.0208 124.294 40.6953 124.758 41.2109C125.227 41.7214 125.82 41.9766 126.539 41.9766C127.049 41.9766 127.482 41.8724 127.836 41.6641C128.19 41.4557 128.5 41.1797 128.766 40.8359L129.648 41.5234C128.94 42.612 127.878 43.1562 126.461 43.1562ZM126.281 35.5781C125.698 35.5781 125.208 35.7917 124.812 36.2188C124.417 36.6406 124.172 37.2344 124.078 38H128.312V37.8906C128.271 37.1562 128.073 36.5885 127.719 36.1875C127.365 35.7812 126.885 35.5781 126.281 35.5781ZM136.359 40.7578C136.359 40.3672 136.211 40.0651 135.914 39.8516C135.622 39.6328 135.109 39.4453 134.375 39.2891C133.646 39.1328 133.065 38.9453 132.633 38.7266C132.206 38.5078 131.888 38.2474 131.68 37.9453C131.477 37.6432 131.375 37.2839 131.375 36.8672C131.375 36.1745 131.667 35.5885 132.25 35.1094C132.839 34.6302 133.589 34.3906 134.5 34.3906C135.458 34.3906 136.234 34.638 136.828 35.1328C137.427 35.6276 137.727 36.2604 137.727 37.0312H136.273C136.273 36.6354 136.104 36.2943 135.766 36.0078C135.432 35.7214 135.01 35.5781 134.5 35.5781C133.974 35.5781 133.562 35.6927 133.266 35.9219C132.969 36.151 132.82 36.4505 132.82 36.8203C132.82 37.1693 132.958 37.4323 133.234 37.6094C133.51 37.7865 134.008 37.9557 134.727 38.1172C135.451 38.2786 136.036 38.4714 136.484 38.6953C136.932 38.9193 137.263 39.1901 137.477 39.5078C137.695 39.8203 137.805 40.2031 137.805 40.6562C137.805 41.4115 137.503 42.0182 136.898 42.4766C136.294 42.9297 135.51 43.1562 134.547 43.1562C133.87 43.1562 133.271 43.0365 132.75 42.7969C132.229 42.5573 131.82 42.224 131.523 41.7969C131.232 41.3646 131.086 40.8984 131.086 40.3984H132.531C132.557 40.8828 132.75 41.2682 133.109 41.5547C133.474 41.8359 133.953 41.9766 134.547 41.9766C135.094 41.9766 135.531 41.8672 135.859 41.6484C136.193 41.4245 136.359 41.1276 136.359 40.7578ZM144.609 40.7578C144.609 40.3672 144.461 40.0651 144.164 39.8516C143.872 39.6328 143.359 39.4453 142.625 39.2891C141.896 39.1328 141.315 38.9453 140.883 38.7266C140.456 38.5078 140.138 38.2474 139.93 37.9453C139.727 37.6432 139.625 37.2839 139.625 36.8672C139.625 36.1745 139.917 35.5885 140.5 35.1094C141.089 34.6302 141.839 34.3906 142.75 34.3906C143.708 34.3906 144.484 34.638 145.078 35.1328C145.677 35.6276 145.977 36.2604 145.977 37.0312H144.523C144.523 36.6354 144.354 36.2943 144.016 36.0078C143.682 35.7214 143.26 35.5781 142.75 35.5781C142.224 35.5781 141.812 35.6927 141.516 35.9219C141.219 36.151 141.07 36.4505 141.07 36.8203C141.07 37.1693 141.208 37.4323 141.484 37.6094C141.76 37.7865 142.258 37.9557 142.977 38.1172C143.701 38.2786 144.286 38.4714 144.734 38.6953C145.182 38.9193 145.513 39.1901 145.727 39.5078C145.945 39.8203 146.055 40.2031 146.055 40.6562C146.055 41.4115 145.753 42.0182 145.148 42.4766C144.544 42.9297 143.76 43.1562 142.797 43.1562C142.12 43.1562 141.521 43.0365 141 42.7969C140.479 42.5573 140.07 42.224 139.773 41.7969C139.482 41.3646 139.336 40.8984 139.336 40.3984H140.781C140.807 40.8828 141 41.2682 141.359 41.5547C141.724 41.8359 142.203 41.9766 142.797 41.9766C143.344 41.9766 143.781 41.8672 144.109 41.6484C144.443 41.4245 144.609 41.1276 144.609 40.7578ZM153.156 43C153.073 42.8333 153.005 42.5365 152.953 42.1094C152.281 42.8073 151.479 43.1562 150.547 43.1562C149.714 43.1562 149.029 42.9219 148.492 42.4531C147.961 41.9792 147.695 41.3802 147.695 40.6562C147.695 39.776 148.029 39.0938 148.695 38.6094C149.367 38.1198 150.31 37.875 151.523 37.875H152.93V37.2109C152.93 36.7057 152.779 36.3047 152.477 36.0078C152.174 35.7057 151.729 35.5547 151.141 35.5547C150.625 35.5547 150.193 35.6849 149.844 35.9453C149.495 36.2057 149.32 36.5208 149.32 36.8906H147.867C147.867 36.4688 148.016 36.0625 148.312 35.6719C148.615 35.276 149.021 34.9635 149.531 34.7344C150.047 34.5052 150.612 34.3906 151.227 34.3906C152.201 34.3906 152.964 34.6354 153.516 35.125C154.068 35.6094 154.354 36.2786 154.375 37.1328V41.0234C154.375 41.7995 154.474 42.4167 154.672 42.875V43H153.156ZM150.758 41.8984C151.211 41.8984 151.641 41.7812 152.047 41.5469C152.453 41.3125 152.747 41.0078 152.93 40.6328V38.8984H151.797C150.026 38.8984 149.141 39.4167 149.141 40.4531C149.141 40.9062 149.292 41.2604 149.594 41.5156C149.896 41.7708 150.284 41.8984 150.758 41.8984ZM156.297 38.7031C156.297 37.3854 156.602 36.3385 157.211 35.5625C157.82 34.7812 158.628 34.3906 159.633 34.3906C160.664 34.3906 161.469 34.7552 162.047 35.4844L162.117 34.5469H163.438V42.7969C163.438 43.8906 163.112 44.7526 162.461 45.3828C161.815 46.013 160.945 46.3281 159.852 46.3281C159.242 46.3281 158.646 46.1979 158.062 45.9375C157.479 45.6771 157.034 45.3203 156.727 44.8672L157.477 44C158.096 44.7656 158.854 45.1484 159.75 45.1484C160.453 45.1484 161 44.9505 161.391 44.5547C161.786 44.1589 161.984 43.6016 161.984 42.8828V42.1562C161.406 42.8229 160.617 43.1562 159.617 43.1562C158.628 43.1562 157.826 42.7578 157.211 41.9609C156.602 41.1641 156.297 40.0781 156.297 38.7031ZM157.75 38.8672C157.75 39.8203 157.945 40.5703 158.336 41.1172C158.727 41.6589 159.273 41.9297 159.977 41.9297C160.888 41.9297 161.557 41.5156 161.984 40.6875V36.8281C161.542 36.0208 160.878 35.6172 159.992 35.6172C159.289 35.6172 158.74 35.8906 158.344 36.4375C157.948 36.9844 157.75 37.7943 157.75 38.8672ZM169.133 43.1562C167.987 43.1562 167.055 42.7812 166.336 42.0312C165.617 41.276 165.258 40.2682 165.258 39.0078V38.7422C165.258 37.9036 165.417 37.1562 165.734 36.5C166.057 35.8385 166.505 35.3229 167.078 34.9531C167.656 34.5781 168.281 34.3906 168.953 34.3906C170.052 34.3906 170.906 34.7526 171.516 35.4766C172.125 36.2005 172.43 37.237 172.43 38.5859V39.1875H166.703C166.724 40.0208 166.966 40.6953 167.43 41.2109C167.898 41.7214 168.492 41.9766 169.211 41.9766C169.721 41.9766 170.154 41.8724 170.508 41.6641C170.862 41.4557 171.172 41.1797 171.438 40.8359L172.32 41.5234C171.612 42.612 170.549 43.1562 169.133 43.1562ZM168.953 35.5781C168.37 35.5781 167.88 35.7917 167.484 36.2188C167.089 36.6406 166.844 37.2344 166.75 38H170.984V37.8906C170.943 37.1562 170.745 36.5885 170.391 36.1875C170.036 35.7812 169.557 35.5781 168.953 35.5781Z" fill="black"/>
<rect x="594" width="156" height="75" rx="10" fill="#DC780B"/>
<path d="M659.634 40.7041C659.634 40.1416 659.435 39.708 659.036 39.4033C658.644 39.0986 657.932 38.791 656.9 38.4805C655.869 38.1699 655.049 37.8242 654.439 37.4434C653.273 36.7109 652.69 35.7559 652.69 34.5781C652.69 33.5469 653.109 32.6973 653.947 32.0293C654.791 31.3613 655.884 31.0273 657.226 31.0273C658.116 31.0273 658.91 31.1914 659.607 31.5195C660.305 31.8477 660.853 32.3164 661.251 32.9258C661.649 33.5293 661.849 34.2002 661.849 34.9385H659.634C659.634 34.2705 659.423 33.749 659.001 33.374C658.585 32.9932 657.987 32.8027 657.208 32.8027C656.481 32.8027 655.916 32.958 655.512 33.2686C655.113 33.5791 654.914 34.0127 654.914 34.5693C654.914 35.0381 655.131 35.4307 655.564 35.7471C655.998 36.0576 656.713 36.3623 657.709 36.6611C658.705 36.9541 659.505 37.291 660.108 37.6719C660.712 38.0469 661.154 38.4805 661.436 38.9727C661.717 39.459 661.857 40.0303 661.857 40.6865C661.857 41.7529 661.447 42.6025 660.627 43.2354C659.812 43.8623 658.705 44.1758 657.305 44.1758C656.379 44.1758 655.526 44.0059 654.747 43.666C653.974 43.3203 653.37 42.8457 652.937 42.2422C652.509 41.6387 652.295 40.9355 652.295 40.1328H654.519C654.519 40.8594 654.759 41.4219 655.239 41.8203C655.72 42.2188 656.408 42.418 657.305 42.418C658.078 42.418 658.658 42.2627 659.045 41.9521C659.438 41.6357 659.634 41.2197 659.634 40.7041ZM667.79 44.1758C666.437 44.1758 665.338 43.751 664.494 42.9014C663.656 42.0459 663.237 40.9092 663.237 39.4912V39.2275C663.237 38.2783 663.419 37.4316 663.782 36.6875C664.151 35.9375 664.667 35.3545 665.329 34.9385C665.991 34.5225 666.729 34.3145 667.544 34.3145C668.839 34.3145 669.838 34.7275 670.541 35.5537C671.25 36.3799 671.604 37.5488 671.604 39.0605V39.9219H665.391C665.455 40.707 665.716 41.3281 666.173 41.7852C666.636 42.2422 667.216 42.4707 667.913 42.4707C668.892 42.4707 669.688 42.0752 670.304 41.2842L671.455 42.3828C671.074 42.9512 670.564 43.3936 669.926 43.71C669.293 44.0205 668.581 44.1758 667.79 44.1758ZM667.535 36.0283C666.949 36.0283 666.475 36.2334 666.111 36.6436C665.754 37.0537 665.525 37.625 665.426 38.3574H669.495V38.1992C669.448 37.4844 669.258 36.9453 668.924 36.582C668.59 36.2129 668.127 36.0283 667.535 36.0283ZM675.252 34.4902L675.313 35.5889C676.017 34.7393 676.939 34.3145 678.082 34.3145C680.062 34.3145 681.07 35.4482 681.105 37.7158V44H678.97V37.8389C678.97 37.2354 678.838 36.79 678.574 36.5029C678.316 36.21 677.892 36.0635 677.3 36.0635C676.438 36.0635 675.797 36.4531 675.375 37.2324V44H673.239V34.4902H675.252ZM682.89 39.1748C682.89 37.71 683.229 36.5352 683.909 35.6504C684.589 34.7598 685.5 34.3145 686.643 34.3145C687.65 34.3145 688.465 34.666 689.086 35.3691V30.5H691.222V44H689.288L689.183 43.0156C688.544 43.7891 687.691 44.1758 686.625 44.1758C685.512 44.1758 684.609 43.7275 683.918 42.8311C683.232 41.9346 682.89 40.7158 682.89 39.1748ZM685.025 39.3594C685.025 40.3262 685.21 41.082 685.579 41.627C685.954 42.166 686.484 42.4355 687.17 42.4355C688.043 42.4355 688.682 42.0459 689.086 41.2666V37.2061C688.693 36.4443 688.061 36.0635 687.188 36.0635C686.496 36.0635 685.963 36.3389 685.588 36.8896C685.213 37.4346 685.025 38.2578 685.025 39.3594Z" fill="white"/>
</svg>
